# xmcd
#
# Track frame offsets:
# 150
# 20490
# 33745
# 57902
# 76750
# 99940
# 119175
# 139110
# 158032
# 170875
# 190152
# 213252
# 233192
# 254682
# 274660
# 314292
# 331880
#
# Disc length: 4673 seconds
#
#
# Revision: 0
# Processed by: cddbd v1.5.1PL0 Copyright (c) Steve Scherf et al.
# Submitted via: FreeRIP 2.90 
#
DISCID=f3123f11
DTITLE=Willie Nelson - Milk Cow Blues
DYEAR=1900
DGENRE=Blues
TTITLE0=Milk Cow Blues
TTITLE1=Outskirts of Town
TTITLE2=Black Night
TTITLE3=Funny How Time Flies Away
TTITLE4=Rainy Day Blues
TTITLE5=Crazy
TTITLE6=The Thrill Is Gone
TTITLE7=Wake Me When It's Over
TTITLE8=Kansas City
TTITLE9=Fool's Paradise
TTITLE10=Ain't Nobody's Business
TTITLE11=Night Life
TTITLE12=Sitting On Top Of The World
TTITLE13=Lonely Street
TTITLE14=Texas Flood
TTITLE15=Seven Spanish Angels
TTITLE16=Good Hearted Woman
EXTD=
EXTT0=
EXTT1=
EXTT2=
EXTT3=
EXTT4=
EXTT5=
EXTT6=
EXTT7=
EXTT8=
EXTT9=
EXTT10=
EXTT11=
EXTT12=
EXTT13=
EXTT14=
EXTT15=
EXTT16=
PLAYORDER=
